<svg width="185" height="280" viewBox="0 0 185 280" fill="none" xmlns="http://www.w3.org/2000/svg">
<path fill-rule="evenodd" clip-rule="evenodd" d="M64.0003 96C62.7973 96 61.8665 97.0544 62.0157 98.2481L70.8999 169.322C71.0558 170.568 72.3085 171.364 73.503 170.976L87.5728 166.4L93.0984 210.605C93.3438 212.569 95.9869 213.021 96.8718 211.251L101.49 202.015L142.687 130.368C143.566 128.839 142.179 127.003 140.468 127.431L114.941 133.813L121.85 98.3828C122.09 97.1479 121.145 96 119.887 96H64.0003Z" fill="url(#paint0_linear_555_25)"/>
<path d="M39 6.10352e-05C39 6.10352e-05 39 4.14283e-05 41.6421 16.9919C44.4194 34.8538 57.005 49.6485 74.1896 55.2566C78 56.5001 78 56.5001 78 56.5001C78 56.5001 78 56.5001 74.1895 57.7436C57.005 63.3516 44.4194 78.1463 41.6421 96.0082C39 113 39 113 39 113C39 113 39 113 36.3579 96.0082C33.5806 78.1463 20.995 63.3516 3.81047 57.7436C0 56.5001 0 56.5001 0 56.5001C0 56.5001 -2.91877e-05 56.5001 3.81043 55.2565C20.995 49.6485 33.5806 34.8538 36.3579 16.9919C39 6.10352e-05 39 6.10352e-05 39 6.10352e-05Z" fill="#06B6D4"/>
<path d="M146 6.10352e-05C146 6.10352e-05 146 4.14283e-05 148.642 16.9919C151.419 34.8538 164.005 49.6485 181.19 55.2566C185 56.5001 185 56.5001 185 56.5001C185 56.5001 185 56.5001 181.19 57.7436C164.005 63.3516 151.419 78.1463 148.642 96.0082C146 113 146 113 146 113C146 113 146 113 143.358 96.0082C140.581 78.1463 127.995 63.3516 110.81 57.7436C107 56.5001 107 56.5001 107 56.5001C107 56.5001 107 56.5001 110.81 55.2565C127.995 49.6485 140.581 34.8538 143.358 16.9919C146 6.10352e-05 146 6.10352e-05 146 6.10352e-05Z" fill="#06B6D4"/>
<path d="M39 164C39 164 39 164 41.7732 182.309C44.4703 200.115 56.9131 214.936 73.9898 220.657C78 222 78 222 78 222C78 222 78 222 73.9897 223.343C56.9131 229.064 44.4703 243.885 41.7732 261.691C39 280 39 280 39 280C39 280 39 280 36.2268 261.691C33.5297 243.885 21.0869 229.064 4.01027 223.343C0 222 0 222 0 222C0 222 -3.01993e-05 222 4.01023 220.657C21.0869 214.936 33.5297 200.115 36.2268 182.309C39 164 39 164 39 164Z" fill="#06B6D4"/>
<path d="M146 164C146 164 146 164 148.773 182.309C151.47 200.115 163.913 214.936 180.99 220.657C185 222 185 222 185 222C185 222 185 222 180.99 223.343C163.913 229.064 151.47 243.885 148.773 261.691C146 280 146 280 146 280C146 280 146 280 143.227 261.691C140.53 243.885 128.087 229.064 111.01 223.343C107 222 107 222 107 222C107 222 107 222 111.01 220.657C128.087 214.936 140.53 200.115 143.227 182.309C146 164 146 164 146 164Z" fill="#06B6D4"/>
<defs>
<linearGradient id="paint0_linear_555_25" x1="48.2428" y1="106.779" x2="159.712" y2="216.045" gradientUnits="userSpaceOnUse">
<stop stop-color="#06B6D4"/>
</linearGradient>
</defs>
</svg>
