<svg width="229" height="64" viewBox="0 0 229 64" fill="none" xmlns="http://www.w3.org/2000/svg">
<mask id="mask0_172_69" style="mask-type:alpha" maskUnits="userSpaceOnUse" x="0" y="0" width="229" height="64">
<path d="M0 64L12 61V64H0Z" fill="#D9D9D9"/>
<rect x="21" y="58" width="5" height="6" fill="#D9D9D9"/>
<rect x="28" y="56" width="5" height="8" fill="#D9D9D9"/>
<rect x="35" y="54" width="5" height="10" fill="#D9D9D9"/>
<rect x="42" y="52" width="5" height="12" fill="#D9D9D9"/>
<rect x="49" y="50" width="5" height="14" fill="#D9D9D9"/>
<rect x="56" y="48" width="5" height="16" fill="#D9D9D9"/>
<rect x="63" y="46" width="5" height="18" fill="#D9D9D9"/>
<rect x="70" y="44" width="5" height="20" fill="#D9D9D9"/>
<rect x="77" y="42" width="5" height="22" fill="#D9D9D9"/>
<rect x="84" y="40" width="5" height="24" fill="#D9D9D9"/>
<rect x="91" y="38" width="5" height="26" fill="#D9D9D9"/>
<rect x="98" y="36" width="5" height="28" fill="#D9D9D9"/>
<rect x="105" y="34" width="5" height="30" fill="#D9D9D9"/>
<rect x="112" y="32" width="5" height="32" fill="#D9D9D9"/>
<rect x="119" y="30" width="5" height="34" fill="#D9D9D9"/>
<rect x="126" y="28" width="5" height="36" fill="#D9D9D9"/>
<rect x="133" y="26" width="5" height="38" fill="#D9D9D9"/>
<rect x="140" y="24" width="5" height="40" fill="#D9D9D9"/>
<rect x="147" y="22" width="5" height="42" fill="#D9D9D9"/>
<rect x="154" y="20" width="5" height="44" fill="#D9D9D9"/>
<rect x="161" y="18" width="5" height="46" fill="#D9D9D9"/>
<rect x="168" y="16" width="5" height="48" fill="#D9D9D9"/>
<rect x="175" y="14" width="5" height="50" fill="#D9D9D9"/>
<rect x="182" y="12" width="5" height="52" fill="#D9D9D9"/>
<rect x="189" y="10" width="5" height="54" fill="#D9D9D9"/>
<rect x="196" y="8" width="5" height="56" fill="#D9D9D9"/>
<rect x="203" y="6" width="5" height="58" fill="#D9D9D9"/>
<rect x="210" y="4" width="5" height="60" fill="#D9D9D9"/>
<rect x="217" y="2" width="5" height="62" fill="#D9D9D9"/>
<rect x="224" width="5" height="64" fill="#D9D9D9"/>
<rect x="14" y="60" width="5" height="4" fill="#D9D9D9"/>
</mask>
<g mask="url(#mask0_172_69)">
<rect width="229" height="64" fill="url(#paint0_linear_172_69)"/>
</g>
<defs>
<linearGradient id="paint0_linear_172_69" x1="0" y1="32" x2="229" y2="32" gradientUnits="userSpaceOnUse">
<stop stop-color="#74DC6E"/>
<stop offset="0.345" stop-color="#EDE62D"/>
<stop offset="0.71" stop-color="#F0891D"/>
<stop offset="1" stop-color="#E81818"/>
</linearGradient>
</defs>
</svg>
