<svg width="80" height="80" viewBox="0 0 80 80" fill="none" xmlns="http://www.w3.org/2000/svg">
<g filter="url(#filter0_d_174_3)">
<path d="M40 8C57.664 8 72 22.336 72 40C72 57.664 57.664 72 40 72C22.336 72 8 57.664 8 40C8 22.336 22.336 8 40 8ZM40 65.6C54.144 65.6 65.6 54.144 65.6 40C65.6 25.856 54.144 14.4 40 14.4C25.856 14.4 14.4 25.856 14.4 40C14.4 54.144 25.856 65.6 40 65.6ZM51.3136 24.1608L55.839 28.6863L40 44.5254L35.4746 40L51.3136 24.1608Z" fill="#9CEEFC"/>
</g>
<defs>
<filter id="filter0_d_174_3" x="0" y="0" width="80" height="80" filterUnits="userSpaceOnUse" color-interpolation-filters="sRGB">
<feFlood flood-opacity="0" result="BackgroundImageFix"/>
<feColorMatrix in="SourceAlpha" type="matrix" values="0 0 0 0 0 0 0 0 0 0 0 0 0 0 0 0 0 0 127 0" result="hardAlpha"/>
<feOffset/>
<feGaussianBlur stdDeviation="4"/>
<feComposite in2="hardAlpha" operator="out"/>
<feColorMatrix type="matrix" values="0 0 0 0 0.0235294 0 0 0 0 0.713726 0 0 0 0 0.831373 0 0 0 1 0"/>
<feBlend mode="normal" in2="BackgroundImageFix" result="effect1_dropShadow_174_3"/>
<feBlend mode="normal" in="SourceGraphic" in2="effect1_dropShadow_174_3" result="shape"/>
</filter>
</defs>
</svg>
