<svg width="80" height="80" viewBox="0 0 80 80" fill="none" xmlns="http://www.w3.org/2000/svg">
<g filter="url(#filter0_d_174_21)">
<path d="M40 72C22.3269 72 8 57.673 8 40C8 22.3269 22.3269 8 40 8C57.673 8 72 22.3269 72 40C72 57.673 57.673 72 40 72ZM40 65.6C54.1386 65.6 65.6 54.1386 65.6 40C65.6 25.8615 54.1386 14.4 40 14.4C25.8615 14.4 14.4 25.8615 14.4 40C14.4 54.1386 25.8615 65.6 40 65.6ZM36.8 49.6H43.2V56H36.8V49.6ZM36.8 24H43.2V43.2H36.8V24Z" fill="#F6B46F"/>
</g>
<defs>
<filter id="filter0_d_174_21" x="0" y="0" width="80" height="80" filterUnits="userSpaceOnUse" color-interpolation-filters="sRGB">
<feFlood flood-opacity="0" result="BackgroundImageFix"/>
<feColorMatrix in="SourceAlpha" type="matrix" values="0 0 0 0 0 0 0 0 0 0 0 0 0 0 0 0 0 0 127 0" result="hardAlpha"/>
<feOffset/>
<feGaussianBlur stdDeviation="4"/>
<feComposite in2="hardAlpha" operator="out"/>
<feColorMatrix type="matrix" values="0 0 0 0 0.941667 0 0 0 0 0.536645 0 0 0 0 0.115093 0 0 0 1 0"/>
<feBlend mode="normal" in2="BackgroundImageFix" result="effect1_dropShadow_174_21"/>
<feBlend mode="normal" in="SourceGraphic" in2="effect1_dropShadow_174_21" result="shape"/>
</filter>
</defs>
</svg>
